<svg xmlns="http://www.w3.org/2000/svg" xmlns:xlink="http://www.w3.org/1999/xlink" width="500" zoomAndPan="magnify" viewBox="0 0 375 374.999991" height="500" preserveAspectRatio="xMidYMid meet" version="1.0"><defs><g/><clipPath id="639e7ae691"><path d="M 68.074219 161.3125 L 124 161.3125 L 124 180.0625 L 68.074219 180.0625 Z M 68.074219 161.3125 " clip-rule="nonzero"/></clipPath><clipPath id="79c8ca6192"><path d="M 101 161.3125 L 133.324219 161.3125 L 133.324219 180 L 101 180 Z M 101 161.3125 " clip-rule="nonzero"/></clipPath></defs><rect x="-37.5" width="450" fill="#ffffff" y="-37.499999" height="449.999989" fill-opacity="1"/><rect x="-37.5" width="450" fill="#fbfaf9" y="-37.499999" height="449.999989" fill-opacity="1"/><g clip-path="url(#639e7ae691)"><path fill="#242424" d="M 69.070312 179.953125 L 95.796875 162.664062 C 95.796875 162.664062 122.519531 179.953125 122.519531 179.953125 C 122.796875 180.128906 123.164062 180.050781 123.34375 179.773438 C 123.523438 179.5 123.445312 179.128906 123.167969 178.949219 C 123.167969 178.949219 96.121094 161.449219 96.121094 161.449219 C 95.921875 161.324219 95.667969 161.324219 95.472656 161.449219 C 95.472656 161.449219 68.421875 178.949219 68.421875 178.949219 C 68.144531 179.128906 68.066406 179.5 68.246094 179.773438 C 68.425781 180.050781 68.792969 180.128906 69.070312 179.953125 Z M 69.070312 179.953125 " fill-opacity="1" fill-rule="evenodd"/></g><g clip-path="url(#79c8ca6192)"><path fill="#242424" d="M 102.402344 166.199219 L 107.316406 163.015625 C 107.316406 163.015625 132.582031 179.59375 132.582031 179.59375 C 132.859375 179.773438 133.230469 179.695312 133.410156 179.421875 C 133.589844 179.144531 133.511719 178.773438 133.238281 178.59375 C 133.238281 178.59375 107.648438 161.804688 107.648438 161.804688 C 107.449219 161.675781 107.195312 161.675781 106.996094 161.804688 C 106.996094 161.804688 104.820312 163.210938 101.753906 165.195312 C 101.476562 165.375 101.398438 165.742188 101.578125 166.019531 C 101.753906 166.296875 102.125 166.375 102.402344 166.199219 Z M 102.402344 166.199219 " fill-opacity="1" fill-rule="evenodd"/></g><path fill="#242424" d="M 83.585938 170.023438 L 83.585938 165.515625 C 83.585938 165.1875 83.320312 164.921875 82.992188 164.921875 L 78.019531 164.921875 C 77.6875 164.921875 77.425781 165.1875 77.425781 165.515625 L 77.425781 173.453125 C 77.425781 173.78125 77.6875 174.046875 78.019531 174.046875 C 78.347656 174.046875 78.613281 173.78125 78.613281 173.453125 L 78.613281 166.109375 C 78.613281 166.109375 82.398438 166.109375 82.398438 166.109375 L 82.398438 170.023438 C 82.398438 170.351562 82.664062 170.617188 82.992188 170.617188 C 83.320312 170.617188 83.585938 170.351562 83.585938 170.023438 Z M 83.585938 170.023438 " fill-opacity="1" fill-rule="evenodd"/><g fill="#242424" fill-opacity="1"><g transform="translate(68.07419, 203.086053)"><g><path d="M 19.34375 -13.546875 C 19.34375 -12.566406 19 -11.753906 18.3125 -11.109375 C 17.625 -10.472656 16.765625 -9.96875 15.734375 -9.59375 C 14.710938 -9.226562 13.625 -8.96875 12.46875 -8.8125 C 11.3125 -8.65625 10.265625 -8.578125 9.328125 -8.578125 C 8.597656 -8.578125 7.953125 -8.59375 7.390625 -8.625 C 6.828125 -8.65625 6.332031 -8.6875 5.90625 -8.71875 L 5.90625 -3.09375 C 5.90625 -2.382812 6.003906 -1.8125 6.203125 -1.375 C 6.410156 -0.9375 6.847656 -0.582031 7.515625 -0.3125 C 7.671875 -0.257812 7.832031 -0.210938 8 -0.171875 C 8.175781 -0.128906 8.265625 -0.09375 8.265625 -0.0625 C 8.265625 0.0390625 8.1875 0.09375 8.03125 0.09375 C 7.976562 0.09375 7.828125 0.0859375 7.578125 0.078125 C 7.328125 0.0664062 7.023438 0.0546875 6.671875 0.046875 C 6.316406 0.0351562 5.921875 0.0234375 5.484375 0.015625 C 5.054688 0.00390625 4.644531 0 4.25 0 C 3.5625 0 3 0.00390625 2.5625 0.015625 C 2.132812 0.0234375 1.796875 0.0351562 1.546875 0.046875 C 1.296875 0.0546875 1.117188 0.0664062 1.015625 0.078125 C 0.910156 0.0859375 0.835938 0.09375 0.796875 0.09375 C 0.671875 0.09375 0.609375 0.0507812 0.609375 -0.03125 C 0.609375 -0.0703125 0.65625 -0.101562 0.75 -0.125 C 0.84375 -0.15625 0.9375 -0.191406 1.03125 -0.234375 C 1.351562 -0.378906 1.613281 -0.550781 1.8125 -0.75 C 2.019531 -0.957031 2.179688 -1.203125 2.296875 -1.484375 C 2.410156 -1.773438 2.484375 -2.125 2.515625 -2.53125 C 2.554688 -2.945312 2.578125 -3.453125 2.578125 -4.046875 L 2.578125 -15.15625 C 2.578125 -15.789062 2.53125 -16.359375 2.4375 -16.859375 C 2.34375 -17.367188 2.019531 -17.757812 1.46875 -18.03125 C 1.332031 -18.082031 1.234375 -18.117188 1.171875 -18.140625 C 1.117188 -18.160156 1.09375 -18.1875 1.09375 -18.21875 C 1.09375 -18.320312 1.1875 -18.375 1.375 -18.375 L 10.796875 -18.375 C 11.535156 -18.375 12.398438 -18.304688 13.390625 -18.171875 C 14.378906 -18.035156 15.3125 -17.785156 16.1875 -17.421875 C 17.070312 -17.054688 17.816406 -16.5625 18.421875 -15.9375 C 19.035156 -15.320312 19.34375 -14.523438 19.34375 -13.546875 Z M 15.5 -13.71875 C 15.5 -14.46875 15.316406 -15.09375 14.953125 -15.59375 C 14.585938 -16.101562 14.117188 -16.507812 13.546875 -16.8125 C 12.972656 -17.125 12.335938 -17.34375 11.640625 -17.46875 C 10.941406 -17.59375 10.257812 -17.65625 9.59375 -17.65625 L 5.90625 -17.65625 L 5.90625 -9.5625 C 6.332031 -9.425781 6.785156 -9.347656 7.265625 -9.328125 C 7.742188 -9.304688 8.257812 -9.296875 8.8125 -9.296875 C 10.976562 -9.296875 12.632812 -9.691406 13.78125 -10.484375 C 14.925781 -11.285156 15.5 -12.363281 15.5 -13.71875 Z M 15.5 -13.71875 "/></g></g></g><g fill="#242424" fill-opacity="1"><g transform="translate(87.733563, 203.086053)"><g><path d="M 22.390625 -0.0625 C 22.390625 0.0390625 22.253906 0.09375 21.984375 0.09375 C 21.890625 0.09375 21.539062 0.078125 20.9375 0.046875 C 20.332031 0.015625 19.609375 0 18.765625 0 C 17.585938 0 16.738281 0.015625 16.21875 0.046875 C 15.695312 0.078125 15.390625 0.09375 15.296875 0.09375 C 15.109375 0.09375 15.015625 0.0625 15.015625 0 C 15.015625 -0.09375 15.140625 -0.171875 15.390625 -0.234375 C 15.710938 -0.347656 15.925781 -0.53125 16.03125 -0.78125 C 16.132812 -1.039062 16.1875 -1.351562 16.1875 -1.71875 C 16.1875 -1.988281 16.050781 -2.429688 15.78125 -3.046875 C 15.519531 -3.660156 15.222656 -4.3125 14.890625 -5 L 13.265625 -8.375 L 6.421875 -8.375 L 4.875 -5.375 C 4.613281 -4.875 4.378906 -4.347656 4.171875 -3.796875 C 3.972656 -3.253906 3.875 -2.6875 3.875 -2.09375 C 3.875 -1.476562 4.035156 -1.054688 4.359375 -0.828125 C 4.679688 -0.597656 5.035156 -0.410156 5.421875 -0.265625 C 5.628906 -0.203125 5.734375 -0.132812 5.734375 -0.0625 C 5.734375 0.0390625 5.617188 0.09375 5.390625 0.09375 C 5.296875 0.09375 5.003906 0.078125 4.515625 0.046875 C 4.023438 0.015625 3.378906 0 2.578125 0 C 2.003906 0 1.53125 0.015625 1.15625 0.046875 C 0.789062 0.078125 0.519531 0.09375 0.34375 0.09375 C 0.09375 0.09375 -0.03125 0.0390625 -0.03125 -0.0625 C -0.03125 -0.15625 0.0351562 -0.234375 0.171875 -0.296875 C 0.304688 -0.367188 0.421875 -0.441406 0.515625 -0.515625 C 0.804688 -0.742188 1.113281 -1.050781 1.4375 -1.4375 C 1.757812 -1.820312 2.070312 -2.226562 2.375 -2.65625 C 2.6875 -3.082031 2.96875 -3.507812 3.21875 -3.9375 C 3.476562 -4.375 3.6875 -4.742188 3.84375 -5.046875 L 10.875 -18.71875 C 10.96875 -18.863281 11.035156 -18.9375 11.078125 -18.9375 L 11.140625 -18.9375 C 11.210938 -18.9375 11.285156 -18.863281 11.359375 -18.71875 L 19.8125 -2.921875 C 20.050781 -2.484375 20.316406 -2.054688 20.609375 -1.640625 C 20.910156 -1.234375 21.285156 -0.867188 21.734375 -0.546875 C 21.878906 -0.429688 22.023438 -0.335938 22.171875 -0.265625 C 22.316406 -0.203125 22.390625 -0.132812 22.390625 -0.0625 Z M 9.8125 -15.0625 L 6.796875 -9.09375 L 12.890625 -9.09375 Z M 9.8125 -15.0625 "/></g></g></g><g fill="#242424" fill-opacity="1"><g transform="translate(110.062024, 203.086053)"><g><path d="M 21.703125 -0.0625 C 21.703125 -0.0390625 21.640625 -0.0234375 21.515625 -0.015625 C 21.390625 -0.00390625 21.085938 0 20.609375 0 L 16.8125 0 L 15.4375 -3.765625 C 15.132812 -4.617188 14.847656 -5.378906 14.578125 -6.046875 C 14.304688 -6.722656 13.988281 -7.296875 13.625 -7.765625 C 13.269531 -8.234375 12.816406 -8.597656 12.265625 -8.859375 C 11.722656 -9.117188 11.003906 -9.253906 10.109375 -9.265625 L 5.90625 -9.390625 L 5.90625 -3.09375 C 5.90625 -2.382812 6.007812 -1.796875 6.21875 -1.328125 C 6.4375 -0.859375 6.800781 -0.507812 7.3125 -0.28125 C 7.582031 -0.15625 7.71875 -0.0820312 7.71875 -0.0625 C 7.71875 -0.0195312 7.613281 0 7.40625 0 L 1 0 C 0.851562 0 0.78125 -0.0195312 0.78125 -0.0625 C 0.78125 -0.0820312 0.929688 -0.15625 1.234375 -0.28125 C 1.785156 -0.570312 2.144531 -0.9375 2.3125 -1.375 C 2.488281 -1.8125 2.578125 -2.382812 2.578125 -3.09375 L 2.578125 -15.15625 C 2.578125 -15.363281 2.566406 -15.601562 2.546875 -15.875 C 2.535156 -16.15625 2.492188 -16.425781 2.421875 -16.6875 C 2.359375 -16.945312 2.25 -17.1875 2.09375 -17.40625 C 1.9375 -17.625 1.71875 -17.78125 1.4375 -17.875 C 1.28125 -17.9375 1.140625 -17.976562 1.015625 -18 C 0.890625 -18.03125 0.828125 -18.097656 0.828125 -18.203125 C 0.828125 -18.253906 0.863281 -18.296875 0.9375 -18.328125 C 1.019531 -18.359375 1.164062 -18.375 1.375 -18.375 L 12.109375 -18.375 C 14.785156 -18.375 16.710938 -17.988281 17.890625 -17.21875 C 19.066406 -16.457031 19.65625 -15.4375 19.65625 -14.15625 C 19.65625 -13.15625 19.390625 -12.363281 18.859375 -11.78125 C 18.335938 -11.195312 17.691406 -10.742188 16.921875 -10.421875 C 16.148438 -10.109375 15.3125 -9.90625 14.40625 -9.8125 C 13.507812 -9.71875 12.6875 -9.671875 11.9375 -9.671875 L 11.9375 -9.609375 C 12.664062 -9.535156 13.375 -9.398438 14.0625 -9.203125 C 14.75 -9.015625 15.390625 -8.753906 15.984375 -8.421875 C 16.578125 -8.085938 17.097656 -7.660156 17.546875 -7.140625 C 17.992188 -6.628906 18.34375 -6 18.59375 -5.25 C 18.769531 -4.769531 18.960938 -4.257812 19.171875 -3.71875 C 19.378906 -3.1875 19.597656 -2.691406 19.828125 -2.234375 C 20.054688 -1.773438 20.285156 -1.378906 20.515625 -1.046875 C 20.753906 -0.710938 20.988281 -0.507812 21.21875 -0.4375 C 21.34375 -0.332031 21.453125 -0.253906 21.546875 -0.203125 C 21.648438 -0.160156 21.703125 -0.113281 21.703125 -0.0625 Z M 15.8125 -13.984375 C 15.8125 -15.046875 15.441406 -15.921875 14.703125 -16.609375 C 13.972656 -17.304688 12.84375 -17.65625 11.3125 -17.65625 L 5.90625 -17.65625 L 5.90625 -10.109375 L 11.109375 -10.109375 C 11.890625 -10.109375 12.570312 -10.21875 13.15625 -10.4375 C 13.738281 -10.65625 14.226562 -10.945312 14.625 -11.3125 C 15.019531 -11.675781 15.316406 -12.09375 15.515625 -12.5625 C 15.710938 -13.03125 15.8125 -13.503906 15.8125 -13.984375 Z M 15.8125 -13.984375 "/></g></g></g><g fill="#242424" fill-opacity="1"><g transform="translate(131.845188, 203.086053)"><g><path d="M 22.390625 -0.0625 C 22.390625 0.0390625 22.253906 0.09375 21.984375 0.09375 C 21.890625 0.09375 21.539062 0.078125 20.9375 0.046875 C 20.332031 0.015625 19.609375 0 18.765625 0 C 17.585938 0 16.738281 0.015625 16.21875 0.046875 C 15.695312 0.078125 15.390625 0.09375 15.296875 0.09375 C 15.109375 0.09375 15.015625 0.0625 15.015625 0 C 15.015625 -0.09375 15.140625 -0.171875 15.390625 -0.234375 C 15.710938 -0.347656 15.925781 -0.53125 16.03125 -0.78125 C 16.132812 -1.039062 16.1875 -1.351562 16.1875 -1.71875 C 16.1875 -1.988281 16.050781 -2.429688 15.78125 -3.046875 C 15.519531 -3.660156 15.222656 -4.3125 14.890625 -5 L 13.265625 -8.375 L 6.421875 -8.375 L 4.875 -5.375 C 4.613281 -4.875 4.378906 -4.347656 4.171875 -3.796875 C 3.972656 -3.253906 3.875 -2.6875 3.875 -2.09375 C 3.875 -1.476562 4.035156 -1.054688 4.359375 -0.828125 C 4.679688 -0.597656 5.035156 -0.410156 5.421875 -0.265625 C 5.628906 -0.203125 5.734375 -0.132812 5.734375 -0.0625 C 5.734375 0.0390625 5.617188 0.09375 5.390625 0.09375 C 5.296875 0.09375 5.003906 0.078125 4.515625 0.046875 C 4.023438 0.015625 3.378906 0 2.578125 0 C 2.003906 0 1.53125 0.015625 1.15625 0.046875 C 0.789062 0.078125 0.519531 0.09375 0.34375 0.09375 C 0.09375 0.09375 -0.03125 0.0390625 -0.03125 -0.0625 C -0.03125 -0.15625 0.0351562 -0.234375 0.171875 -0.296875 C 0.304688 -0.367188 0.421875 -0.441406 0.515625 -0.515625 C 0.804688 -0.742188 1.113281 -1.050781 1.4375 -1.4375 C 1.757812 -1.820312 2.070312 -2.226562 2.375 -2.65625 C 2.6875 -3.082031 2.96875 -3.507812 3.21875 -3.9375 C 3.476562 -4.375 3.6875 -4.742188 3.84375 -5.046875 L 10.875 -18.71875 C 10.96875 -18.863281 11.035156 -18.9375 11.078125 -18.9375 L 11.140625 -18.9375 C 11.210938 -18.9375 11.285156 -18.863281 11.359375 -18.71875 L 19.8125 -2.921875 C 20.050781 -2.484375 20.316406 -2.054688 20.609375 -1.640625 C 20.910156 -1.234375 21.285156 -0.867188 21.734375 -0.546875 C 21.878906 -0.429688 22.023438 -0.335938 22.171875 -0.265625 C 22.316406 -0.203125 22.390625 -0.132812 22.390625 -0.0625 Z M 9.8125 -15.0625 L 6.796875 -9.09375 L 12.890625 -9.09375 Z M 9.8125 -15.0625 "/></g></g></g><g fill="#242424" fill-opacity="1"><g transform="translate(154.173649, 203.086053)"><g><path d="M 21.5 -18.375 C 21.5 -18.289062 21.335938 -18.164062 21.015625 -18 C 20.671875 -17.820312 20.382812 -17.570312 20.15625 -17.25 C 19.9375 -16.925781 19.765625 -16.546875 19.640625 -16.109375 C 19.515625 -15.679688 19.425781 -15.222656 19.375 -14.734375 C 19.332031 -14.242188 19.3125 -13.753906 19.3125 -13.265625 L 19.3125 0.203125 C 19.3125 0.296875 19.289062 0.390625 19.25 0.484375 C 19.21875 0.578125 19.171875 0.625 19.109375 0.625 C 19.015625 0.625 18.921875 0.570312 18.828125 0.46875 C 18.734375 0.363281 18.628906 0.242188 18.515625 0.109375 L 3.390625 -16.390625 L 3.390625 -5.109375 C 3.390625 -4.609375 3.410156 -4.117188 3.453125 -3.640625 C 3.503906 -3.160156 3.609375 -2.707031 3.765625 -2.28125 C 3.929688 -1.851562 4.15625 -1.46875 4.4375 -1.125 C 4.726562 -0.78125 5.101562 -0.5 5.5625 -0.28125 C 5.664062 -0.25 5.75 -0.222656 5.8125 -0.203125 C 5.875 -0.179688 5.90625 -0.148438 5.90625 -0.109375 C 5.90625 -0.078125 5.863281 -0.0507812 5.78125 -0.03125 C 5.695312 -0.0078125 5.53125 0 5.28125 0 L 0.453125 0 C 0.285156 0 0.203125 -0.0195312 0.203125 -0.0625 C 0.203125 -0.132812 0.269531 -0.171875 0.40625 -0.171875 C 0.882812 -0.398438 1.269531 -0.695312 1.5625 -1.0625 C 1.863281 -1.425781 2.09375 -1.828125 2.25 -2.265625 C 2.414062 -2.703125 2.523438 -3.164062 2.578125 -3.65625 C 2.640625 -4.144531 2.671875 -4.628906 2.671875 -5.109375 L 2.671875 -13.140625 C 2.671875 -14.066406 2.632812 -14.820312 2.5625 -15.40625 C 2.5 -15.988281 2.410156 -16.445312 2.296875 -16.78125 C 2.179688 -17.113281 2.035156 -17.359375 1.859375 -17.515625 C 1.691406 -17.679688 1.503906 -17.8125 1.296875 -17.90625 C 0.953125 -18.0625 0.78125 -18.164062 0.78125 -18.21875 C 0.78125 -18.320312 0.921875 -18.375 1.203125 -18.375 L 5.96875 -18.375 L 18.59375 -5.484375 L 18.59375 -12.34375 C 18.59375 -13.007812 18.566406 -13.644531 18.515625 -14.25 C 18.472656 -14.851562 18.367188 -15.398438 18.203125 -15.890625 C 18.046875 -16.390625 17.820312 -16.832031 17.53125 -17.21875 C 17.25 -17.601562 16.859375 -17.898438 16.359375 -18.109375 C 16.203125 -18.171875 16.125 -18.25 16.125 -18.34375 C 16.125 -18.4375 16.25 -18.484375 16.5 -18.484375 L 21.21875 -18.484375 C 21.40625 -18.484375 21.5 -18.445312 21.5 -18.375 Z M 21.5 -18.375 "/></g></g></g><g fill="#242424" fill-opacity="1"><g transform="translate(175.956814, 203.086053)"><g><path d="M 20.71875 -4.875 C 20.71875 -4.03125 20.507812 -3.316406 20.09375 -2.734375 C 19.6875 -2.148438 19.171875 -1.671875 18.546875 -1.296875 C 17.929688 -0.929688 17.25 -0.648438 16.5 -0.453125 C 15.757812 -0.265625 15.050781 -0.132812 14.375 -0.0625 C 13.820312 0 13.269531 0.0390625 12.71875 0.0625 C 12.164062 0.09375 11.695312 0.109375 11.3125 0.109375 C 10.988281 0.109375 10.359375 0.0859375 9.421875 0.046875 C 8.492188 0.015625 7.398438 0 6.140625 0 L 2.359375 0 C 2.066406 0 1.820312 0.0078125 1.625 0.03125 C 1.4375 0.0507812 1.226562 0.0625 1 0.0625 C 0.675781 0.0625 0.46875 0.0507812 0.375 0.03125 C 0.28125 0.0078125 0.234375 -0.0195312 0.234375 -0.0625 C 0.234375 -0.15625 0.28125 -0.210938 0.375 -0.234375 C 0.46875 -0.253906 0.59375 -0.28125 0.75 -0.3125 C 1.363281 -0.488281 1.820312 -0.800781 2.125 -1.25 C 2.425781 -1.695312 2.578125 -2.367188 2.578125 -3.265625 L 2.578125 -15.15625 C 2.578125 -15.957031 2.523438 -16.566406 2.421875 -16.984375 C 2.316406 -17.410156 1.988281 -17.726562 1.4375 -17.9375 C 1.300781 -18 1.1875 -18.039062 1.09375 -18.0625 C 1.007812 -18.09375 0.96875 -18.144531 0.96875 -18.21875 C 0.96875 -18.28125 1.035156 -18.320312 1.171875 -18.34375 C 1.304688 -18.363281 1.453125 -18.375 1.609375 -18.375 L 11.484375 -18.375 C 12.171875 -18.375 12.941406 -18.316406 13.796875 -18.203125 C 14.660156 -18.085938 15.476562 -17.878906 16.25 -17.578125 C 17.03125 -17.285156 17.679688 -16.867188 18.203125 -16.328125 C 18.734375 -15.796875 19 -15.109375 19 -14.265625 C 19 -13.460938 18.796875 -12.796875 18.390625 -12.265625 C 17.992188 -11.742188 17.484375 -11.320312 16.859375 -11 C 16.242188 -10.6875 15.578125 -10.457031 14.859375 -10.3125 C 14.140625 -10.175781 13.460938 -10.078125 12.828125 -10.015625 L 12.828125 -9.953125 C 13.609375 -9.941406 14.457031 -9.847656 15.375 -9.671875 C 16.300781 -9.503906 17.15625 -9.226562 17.9375 -8.84375 C 18.71875 -8.457031 19.375 -7.9375 19.90625 -7.28125 C 20.445312 -6.632812 20.71875 -5.832031 20.71875 -4.875 Z M 15.390625 -14.15625 C 15.390625 -15.1875 14.976562 -16.023438 14.15625 -16.671875 C 13.34375 -17.328125 12.164062 -17.65625 10.625 -17.65625 L 5.90625 -17.65625 L 5.90625 -10.28125 L 9.46875 -10.28125 C 11.5 -10.28125 12.992188 -10.628906 13.953125 -11.328125 C 14.910156 -12.023438 15.390625 -12.96875 15.390625 -14.15625 Z M 16.875 -5.1875 C 16.875 -6.050781 16.660156 -6.765625 16.234375 -7.328125 C 15.816406 -7.898438 15.296875 -8.347656 14.671875 -8.671875 C 14.054688 -8.992188 13.398438 -9.222656 12.703125 -9.359375 C 12.003906 -9.492188 11.378906 -9.5625 10.828125 -9.5625 L 5.90625 -9.5625 L 5.90625 -4.1875 C 5.90625 -3.476562 5.925781 -2.898438 5.96875 -2.453125 C 6.007812 -2.003906 6.097656 -1.648438 6.234375 -1.390625 C 6.378906 -1.128906 6.585938 -0.953125 6.859375 -0.859375 C 7.128906 -0.765625 7.492188 -0.71875 7.953125 -0.71875 L 11.96875 -0.71875 C 13.457031 -0.71875 14.644531 -1.070312 15.53125 -1.78125 C 16.425781 -2.488281 16.875 -3.625 16.875 -5.1875 Z M 16.875 -5.1875 "/></g></g></g><g fill="#242424" fill-opacity="1"><g transform="translate(197.739978, 203.086053)"><g><path d="M 22.078125 -18.375 C 22.078125 -18.332031 21.929688 -18.207031 21.640625 -18 C 21.429688 -17.863281 21.210938 -17.679688 20.984375 -17.453125 C 20.753906 -17.222656 20.539062 -16.921875 20.34375 -16.546875 C 20.15625 -16.171875 20 -15.710938 19.875 -15.171875 C 19.75 -14.640625 19.6875 -14.003906 19.6875 -13.265625 L 19.6875 -7.296875 C 19.6875 -4.515625 19.023438 -2.503906 17.703125 -1.265625 C 16.390625 -0.0351562 14.34375 0.578125 11.5625 0.578125 C 10.476562 0.578125 9.40625 0.5 8.34375 0.34375 C 7.28125 0.1875 6.332031 -0.113281 5.5 -0.5625 C 4.664062 -1.007812 3.988281 -1.632812 3.46875 -2.4375 C 2.957031 -3.238281 2.703125 -4.289062 2.703125 -5.59375 L 2.703125 -15.84375 C 2.703125 -16.4375 2.609375 -16.945312 2.421875 -17.375 C 2.242188 -17.8125 1.925781 -18.085938 1.46875 -18.203125 C 1.269531 -18.273438 1.171875 -18.332031 1.171875 -18.375 C 1.171875 -18.445312 1.316406 -18.484375 1.609375 -18.484375 C 1.722656 -18.484375 1.890625 -18.476562 2.109375 -18.46875 C 2.328125 -18.457031 2.566406 -18.441406 2.828125 -18.421875 C 3.085938 -18.410156 3.347656 -18.398438 3.609375 -18.390625 C 3.878906 -18.378906 4.128906 -18.375 4.359375 -18.375 C 4.585938 -18.375 4.84375 -18.378906 5.125 -18.390625 C 5.40625 -18.398438 5.671875 -18.410156 5.921875 -18.421875 C 6.179688 -18.441406 6.414062 -18.457031 6.625 -18.46875 C 6.84375 -18.476562 7.007812 -18.484375 7.125 -18.484375 C 7.40625 -18.484375 7.546875 -18.445312 7.546875 -18.375 C 7.546875 -18.332031 7.453125 -18.273438 7.265625 -18.203125 C 6.804688 -18.085938 6.484375 -17.8125 6.296875 -17.375 C 6.117188 -16.945312 6.03125 -16.4375 6.03125 -15.84375 L 6.03125 -5.625 C 6.03125 -4.726562 6.179688 -3.9375 6.484375 -3.25 C 6.796875 -2.570312 7.222656 -2.003906 7.765625 -1.546875 C 8.304688 -1.085938 8.953125 -0.738281 9.703125 -0.5 C 10.453125 -0.257812 11.265625 -0.140625 12.140625 -0.140625 C 14.535156 -0.140625 16.269531 -0.707031 17.34375 -1.84375 C 18.425781 -2.988281 18.96875 -4.796875 18.96875 -7.265625 L 18.96875 -13.265625 C 18.96875 -14.710938 18.789062 -15.800781 18.4375 -16.53125 C 18.082031 -17.257812 17.609375 -17.773438 17.015625 -18.078125 C 16.921875 -18.117188 16.832031 -18.164062 16.75 -18.21875 C 16.675781 -18.28125 16.640625 -18.332031 16.640625 -18.375 C 16.640625 -18.40625 16.664062 -18.429688 16.71875 -18.453125 C 16.78125 -18.472656 16.832031 -18.484375 16.875 -18.484375 C 17.082031 -18.484375 17.257812 -18.476562 17.40625 -18.46875 C 17.550781 -18.457031 17.707031 -18.441406 17.875 -18.421875 C 18.050781 -18.410156 18.25 -18.398438 18.46875 -18.390625 C 18.6875 -18.378906 18.957031 -18.375 19.28125 -18.375 C 19.894531 -18.375 20.398438 -18.390625 20.796875 -18.421875 C 21.203125 -18.460938 21.484375 -18.484375 21.640625 -18.484375 C 21.929688 -18.484375 22.078125 -18.445312 22.078125 -18.375 Z M 22.078125 -18.375 "/></g></g></g><g fill="#242424" fill-opacity="1"><g transform="translate(220.068439, 203.086053)"><g><path d="M 21.703125 -0.0625 C 21.703125 -0.0390625 21.640625 -0.0234375 21.515625 -0.015625 C 21.390625 -0.00390625 21.085938 0 20.609375 0 L 16.8125 0 L 15.4375 -3.765625 C 15.132812 -4.617188 14.847656 -5.378906 14.578125 -6.046875 C 14.304688 -6.722656 13.988281 -7.296875 13.625 -7.765625 C 13.269531 -8.234375 12.816406 -8.597656 12.265625 -8.859375 C 11.722656 -9.117188 11.003906 -9.253906 10.109375 -9.265625 L 5.90625 -9.390625 L 5.90625 -3.09375 C 5.90625 -2.382812 6.007812 -1.796875 6.21875 -1.328125 C 6.4375 -0.859375 6.800781 -0.507812 7.3125 -0.28125 C 7.582031 -0.15625 7.71875 -0.0820312 7.71875 -0.0625 C 7.71875 -0.0195312 7.613281 0 7.40625 0 L 1 0 C 0.851562 0 0.78125 -0.0195312 0.78125 -0.0625 C 0.78125 -0.0820312 0.929688 -0.15625 1.234375 -0.28125 C 1.785156 -0.570312 2.144531 -0.9375 2.3125 -1.375 C 2.488281 -1.8125 2.578125 -2.382812 2.578125 -3.09375 L 2.578125 -15.15625 C 2.578125 -15.363281 2.566406 -15.601562 2.546875 -15.875 C 2.535156 -16.15625 2.492188 -16.425781 2.421875 -16.6875 C 2.359375 -16.945312 2.25 -17.1875 2.09375 -17.40625 C 1.9375 -17.625 1.71875 -17.78125 1.4375 -17.875 C 1.28125 -17.9375 1.140625 -17.976562 1.015625 -18 C 0.890625 -18.03125 0.828125 -18.097656 0.828125 -18.203125 C 0.828125 -18.253906 0.863281 -18.296875 0.9375 -18.328125 C 1.019531 -18.359375 1.164062 -18.375 1.375 -18.375 L 12.109375 -18.375 C 14.785156 -18.375 16.710938 -17.988281 17.890625 -17.21875 C 19.066406 -16.457031 19.65625 -15.4375 19.65625 -14.15625 C 19.65625 -13.15625 19.390625 -12.363281 18.859375 -11.78125 C 18.335938 -11.195312 17.691406 -10.742188 16.921875 -10.421875 C 16.148438 -10.109375 15.3125 -9.90625 14.40625 -9.8125 C 13.507812 -9.71875 12.6875 -9.671875 11.9375 -9.671875 L 11.9375 -9.609375 C 12.664062 -9.535156 13.375 -9.398438 14.0625 -9.203125 C 14.75 -9.015625 15.390625 -8.753906 15.984375 -8.421875 C 16.578125 -8.085938 17.097656 -7.660156 17.546875 -7.140625 C 17.992188 -6.628906 18.34375 -6 18.59375 -5.25 C 18.769531 -4.769531 18.960938 -4.257812 19.171875 -3.71875 C 19.378906 -3.1875 19.597656 -2.691406 19.828125 -2.234375 C 20.054688 -1.773438 20.285156 -1.378906 20.515625 -1.046875 C 20.753906 -0.710938 20.988281 -0.507812 21.21875 -0.4375 C 21.34375 -0.332031 21.453125 -0.253906 21.546875 -0.203125 C 21.648438 -0.160156 21.703125 -0.113281 21.703125 -0.0625 Z M 15.8125 -13.984375 C 15.8125 -15.046875 15.441406 -15.921875 14.703125 -16.609375 C 13.972656 -17.304688 12.84375 -17.65625 11.3125 -17.65625 L 5.90625 -17.65625 L 5.90625 -10.109375 L 11.109375 -10.109375 C 11.890625 -10.109375 12.570312 -10.21875 13.15625 -10.4375 C 13.738281 -10.65625 14.226562 -10.945312 14.625 -11.3125 C 15.019531 -11.675781 15.316406 -12.09375 15.515625 -12.5625 C 15.710938 -13.03125 15.8125 -13.503906 15.8125 -13.984375 Z M 15.8125 -13.984375 "/></g></g></g><g fill="#242424" fill-opacity="1"><g transform="translate(241.851604, 203.086053)"><g><path d="M 22.390625 -0.0625 C 22.390625 0.0390625 22.253906 0.09375 21.984375 0.09375 C 21.890625 0.09375 21.539062 0.078125 20.9375 0.046875 C 20.332031 0.015625 19.609375 0 18.765625 0 C 17.585938 0 16.738281 0.015625 16.21875 0.046875 C 15.695312 0.078125 15.390625 0.09375 15.296875 0.09375 C 15.109375 0.09375 15.015625 0.0625 15.015625 0 C 15.015625 -0.09375 15.140625 -0.171875 15.390625 -0.234375 C 15.710938 -0.347656 15.925781 -0.53125 16.03125 -0.78125 C 16.132812 -1.039062 16.1875 -1.351562 16.1875 -1.71875 C 16.1875 -1.988281 16.050781 -2.429688 15.78125 -3.046875 C 15.519531 -3.660156 15.222656 -4.3125 14.890625 -5 L 13.265625 -8.375 L 6.421875 -8.375 L 4.875 -5.375 C 4.613281 -4.875 4.378906 -4.347656 4.171875 -3.796875 C 3.972656 -3.253906 3.875 -2.6875 3.875 -2.09375 C 3.875 -1.476562 4.035156 -1.054688 4.359375 -0.828125 C 4.679688 -0.597656 5.035156 -0.410156 5.421875 -0.265625 C 5.628906 -0.203125 5.734375 -0.132812 5.734375 -0.0625 C 5.734375 0.0390625 5.617188 0.09375 5.390625 0.09375 C 5.296875 0.09375 5.003906 0.078125 4.515625 0.046875 C 4.023438 0.015625 3.378906 0 2.578125 0 C 2.003906 0 1.53125 0.015625 1.15625 0.046875 C 0.789062 0.078125 0.519531 0.09375 0.34375 0.09375 C 0.09375 0.09375 -0.03125 0.0390625 -0.03125 -0.0625 C -0.03125 -0.15625 0.0351562 -0.234375 0.171875 -0.296875 C 0.304688 -0.367188 0.421875 -0.441406 0.515625 -0.515625 C 0.804688 -0.742188 1.113281 -1.050781 1.4375 -1.4375 C 1.757812 -1.820312 2.070312 -2.226562 2.375 -2.65625 C 2.6875 -3.082031 2.96875 -3.507812 3.21875 -3.9375 C 3.476562 -4.375 3.6875 -4.742188 3.84375 -5.046875 L 10.875 -18.71875 C 10.96875 -18.863281 11.035156 -18.9375 11.078125 -18.9375 L 11.140625 -18.9375 C 11.210938 -18.9375 11.285156 -18.863281 11.359375 -18.71875 L 19.8125 -2.921875 C 20.050781 -2.484375 20.316406 -2.054688 20.609375 -1.640625 C 20.910156 -1.234375 21.285156 -0.867188 21.734375 -0.546875 C 21.878906 -0.429688 22.023438 -0.335938 22.171875 -0.265625 C 22.316406 -0.203125 22.390625 -0.132812 22.390625 -0.0625 Z M 9.8125 -15.0625 L 6.796875 -9.09375 L 12.890625 -9.09375 Z M 9.8125 -15.0625 "/></g></g></g><g fill="#242424" fill-opacity="1"><g transform="translate(264.180064, 203.086053)"><g><path d="M 21.578125 -9.25 C 21.578125 -8.226562 21.367188 -7.171875 20.953125 -6.078125 C 20.546875 -4.992188 19.925781 -4 19.09375 -3.09375 C 18.269531 -2.195312 17.234375 -1.457031 15.984375 -0.875 C 14.742188 -0.289062 13.28125 0 11.59375 0 L 1.03125 0 C 0.59375 0 0.375 -0.03125 0.375 -0.09375 C 0.375 -0.125 0.421875 -0.160156 0.515625 -0.203125 C 0.609375 -0.242188 0.734375 -0.28125 0.890625 -0.3125 C 1.390625 -0.46875 1.796875 -0.796875 2.109375 -1.296875 C 2.421875 -1.804688 2.578125 -2.609375 2.578125 -3.703125 L 2.578125 -15.15625 C 2.578125 -16.050781 2.488281 -16.679688 2.3125 -17.046875 C 2.144531 -17.410156 1.863281 -17.695312 1.46875 -17.90625 C 1.332031 -17.96875 1.210938 -18.019531 1.109375 -18.0625 C 1.015625 -18.113281 0.96875 -18.175781 0.96875 -18.25 C 0.96875 -18.289062 1.007812 -18.320312 1.09375 -18.34375 C 1.1875 -18.363281 1.28125 -18.375 1.375 -18.375 L 10.90625 -18.375 C 12.4375 -18.375 13.851562 -18.15625 15.15625 -17.71875 C 16.457031 -17.289062 17.582031 -16.675781 18.53125 -15.875 C 19.476562 -15.070312 20.222656 -14.109375 20.765625 -12.984375 C 21.304688 -11.867188 21.578125 -10.625 21.578125 -9.25 Z M 17.734375 -9.640625 C 17.734375 -14.984375 15.226562 -17.65625 10.21875 -17.65625 L 5.90625 -17.65625 L 5.90625 -2.984375 C 5.90625 -2.222656 6.140625 -1.65625 6.609375 -1.28125 C 7.078125 -0.90625 7.972656 -0.71875 9.296875 -0.71875 C 10.890625 -0.71875 12.222656 -0.921875 13.296875 -1.328125 C 14.378906 -1.742188 15.25 -2.335938 15.90625 -3.109375 C 16.570312 -3.890625 17.039062 -4.828125 17.3125 -5.921875 C 17.59375 -7.023438 17.734375 -8.265625 17.734375 -9.640625 Z M 17.734375 -9.640625 "/></g></g></g><g fill="#242424" fill-opacity="1"><g transform="translate(287.025108, 203.086053)"><g><path d="M 22.390625 -0.0625 C 22.390625 0.0390625 22.253906 0.09375 21.984375 0.09375 C 21.890625 0.09375 21.539062 0.078125 20.9375 0.046875 C 20.332031 0.015625 19.609375 0 18.765625 0 C 17.585938 0 16.738281 0.015625 16.21875 0.046875 C 15.695312 0.078125 15.390625 0.09375 15.296875 0.09375 C 15.109375 0.09375 15.015625 0.0625 15.015625 0 C 15.015625 -0.09375 15.140625 -0.171875 15.390625 -0.234375 C 15.710938 -0.347656 15.925781 -0.53125 16.03125 -0.78125 C 16.132812 -1.039062 16.1875 -1.351562 16.1875 -1.71875 C 16.1875 -1.988281 16.050781 -2.429688 15.78125 -3.046875 C 15.519531 -3.660156 15.222656 -4.3125 14.890625 -5 L 13.265625 -8.375 L 6.421875 -8.375 L 4.875 -5.375 C 4.613281 -4.875 4.378906 -4.347656 4.171875 -3.796875 C 3.972656 -3.253906 3.875 -2.6875 3.875 -2.09375 C 3.875 -1.476562 4.035156 -1.054688 4.359375 -0.828125 C 4.679688 -0.597656 5.035156 -0.410156 5.421875 -0.265625 C 5.628906 -0.203125 5.734375 -0.132812 5.734375 -0.0625 C 5.734375 0.0390625 5.617188 0.09375 5.390625 0.09375 C 5.296875 0.09375 5.003906 0.078125 4.515625 0.046875 C 4.023438 0.015625 3.378906 0 2.578125 0 C 2.003906 0 1.53125 0.015625 1.15625 0.046875 C 0.789062 0.078125 0.519531 0.09375 0.34375 0.09375 C 0.09375 0.09375 -0.03125 0.0390625 -0.03125 -0.0625 C -0.03125 -0.15625 0.0351562 -0.234375 0.171875 -0.296875 C 0.304688 -0.367188 0.421875 -0.441406 0.515625 -0.515625 C 0.804688 -0.742188 1.113281 -1.050781 1.4375 -1.4375 C 1.757812 -1.820312 2.070312 -2.226562 2.375 -2.65625 C 2.6875 -3.082031 2.96875 -3.507812 3.21875 -3.9375 C 3.476562 -4.375 3.6875 -4.742188 3.84375 -5.046875 L 10.875 -18.71875 C 10.96875 -18.863281 11.035156 -18.9375 11.078125 -18.9375 L 11.140625 -18.9375 C 11.210938 -18.9375 11.285156 -18.863281 11.359375 -18.71875 L 19.8125 -2.921875 C 20.050781 -2.484375 20.316406 -2.054688 20.609375 -1.640625 C 20.910156 -1.234375 21.285156 -0.867188 21.734375 -0.546875 C 21.878906 -0.429688 22.023438 -0.335938 22.171875 -0.265625 C 22.316406 -0.203125 22.390625 -0.132812 22.390625 -0.0625 Z M 9.8125 -15.0625 L 6.796875 -9.09375 L 12.890625 -9.09375 Z M 9.8125 -15.0625 "/></g></g></g><g fill="#242424" fill-opacity="1"><g transform="translate(309.355881, 203.086053)"><g/></g></g><path stroke-linecap="round" transform="matrix(0.75, -0.000000000000000279, 0.000000000000000279, 0.75, 133.390469, 179.00971)" fill="none" stroke-linejoin="miter" d="M 0.500208 0.49747 L 75.588754 0.49747 " stroke="#000000" stroke-width="1" stroke-opacity="1" stroke-miterlimit="4"/></svg>
