<svg width="76" height="11" viewBox="0 0 76 11" fill="none" xmlns="http://www.w3.org/2000/svg">
<path d="M0.904 10.12C0.768 10.12 0.66 10.08 0.58 10C0.5 9.912 0.46 9.792 0.46 9.64V3.04C0.46 2.592 0.592 2.24 0.856 1.984C1.128 1.728 1.504 1.6 1.984 1.6H4.024C6.304 1.6 7.444 2.556 7.444 4.468C7.444 5.348 7.152 6.028 6.568 6.508C5.992 6.98 5.16 7.216 4.072 7.216H1.36V9.64C1.36 9.792 1.32 9.912 1.24 10C1.16 10.08 1.048 10.12 0.904 10.12ZM4.072 6.46C4.848 6.46 5.448 6.308 5.872 6.004C6.304 5.7 6.52 5.188 6.52 4.468C6.52 3.716 6.312 3.176 5.896 2.848C5.48 2.512 4.876 2.344 4.084 2.344H1.996C1.804 2.344 1.648 2.408 1.528 2.536C1.416 2.664 1.36 2.832 1.36 3.04V6.46H4.072ZM10.5985 10.12C9.8145 10.12 9.1985 9.948 8.7505 9.604C8.3105 9.26 8.0905 8.784 8.0905 8.176C8.0905 7.576 8.3225 7.1 8.7865 6.748C9.2585 6.396 9.8985 6.22 10.7065 6.22C11.1785 6.22 11.5945 6.284 11.9545 6.412C12.3225 6.54 12.6065 6.712 12.8065 6.928V6.16C12.8065 5.704 12.6545 5.356 12.3505 5.116C12.0545 4.876 11.6185 4.756 11.0425 4.756C10.2985 4.756 9.6545 4.932 9.1105 5.284C8.9745 5.364 8.8625 5.404 8.7745 5.404C8.6945 5.404 8.6145 5.372 8.5345 5.308C8.4465 5.236 8.4025 5.144 8.4025 5.032C8.4025 4.912 8.4545 4.812 8.5585 4.732C8.8465 4.508 9.2105 4.332 9.6505 4.204C10.0985 4.068 10.5545 4 11.0185 4C11.8665 4 12.5225 4.192 12.9865 4.576C13.4585 4.96 13.6945 5.5 13.6945 6.196V9.652C13.6945 9.964 13.5505 10.12 13.2625 10.12C13.1345 10.12 13.0305 10.08 12.9505 10C12.8705 9.912 12.8305 9.8 12.8305 9.664V9.232C12.3345 9.824 11.5905 10.12 10.5985 10.12ZM10.7065 9.388C11.3305 9.388 11.8385 9.272 12.2305 9.04C12.6225 8.8 12.8185 8.492 12.8185 8.116C12.8185 7.74 12.6345 7.452 12.2665 7.252C11.9065 7.044 11.3945 6.94 10.7305 6.94C10.1705 6.94 9.7385 7.048 9.4345 7.264C9.1305 7.472 8.9785 7.776 8.9785 8.176C8.9785 8.568 9.1265 8.868 9.4225 9.076C9.7185 9.284 10.1465 9.388 10.7065 9.388ZM15.7606 10.12C15.6246 10.12 15.5166 10.08 15.4366 10C15.3646 9.912 15.3286 9.792 15.3286 9.64V4.48C15.3286 4.328 15.3646 4.212 15.4366 4.132C15.5086 4.044 15.6166 4 15.7606 4C15.8966 4 16.0006 4.044 16.0726 4.132C16.1526 4.212 16.1926 4.328 16.1926 4.48V5.2C16.7366 4.48 17.4886 4.12 18.4486 4.12H18.7486C18.9006 4.12 19.0206 4.156 19.1086 4.228C19.1966 4.292 19.2406 4.384 19.2406 4.504C19.2406 4.624 19.1966 4.716 19.1086 4.78C19.0206 4.844 18.9006 4.876 18.7486 4.876H18.4126C17.7326 4.876 17.1926 5.072 16.7926 5.464C16.4006 5.848 16.2046 6.372 16.2046 7.036V9.64C16.2046 9.784 16.1646 9.9 16.0846 9.988C16.0126 10.076 15.9046 10.12 15.7606 10.12ZM22.1532 10.12C21.3692 10.12 20.7532 9.948 20.3052 9.604C19.8652 9.26 19.6452 8.784 19.6452 8.176C19.6452 7.576 19.8772 7.1 20.3412 6.748C20.8132 6.396 21.4532 6.22 22.2612 6.22C22.7332 6.22 23.1492 6.284 23.5092 6.412C23.8772 6.54 24.1612 6.712 24.3612 6.928V6.16C24.3612 5.704 24.2092 5.356 23.9052 5.116C23.6092 4.876 23.1732 4.756 22.5972 4.756C21.8532 4.756 21.2092 4.932 20.6652 5.284C20.5292 5.364 20.4172 5.404 20.3292 5.404C20.2492 5.404 20.1692 5.372 20.0892 5.308C20.0012 5.236 19.9572 5.144 19.9572 5.032C19.9572 4.912 20.0092 4.812 20.1132 4.732C20.4012 4.508 20.7652 4.332 21.2052 4.204C21.6532 4.068 22.1092 4 22.5732 4C23.4212 4 24.0772 4.192 24.5412 4.576C25.0132 4.96 25.2492 5.5 25.2492 6.196V9.652C25.2492 9.964 25.1052 10.12 24.8172 10.12C24.6892 10.12 24.5852 10.08 24.5052 10C24.4252 9.912 24.3852 9.8 24.3852 9.664V9.232C23.8892 9.824 23.1452 10.12 22.1532 10.12ZM22.2612 9.388C22.8852 9.388 23.3932 9.272 23.7852 9.04C24.1772 8.8 24.3732 8.492 24.3732 8.116C24.3732 7.74 24.1892 7.452 23.8212 7.252C23.4612 7.044 22.9492 6.94 22.2852 6.94C21.7252 6.94 21.2932 7.048 20.9892 7.264C20.6852 7.472 20.5332 7.776 20.5332 8.176C20.5332 8.568 20.6812 8.868 20.9772 9.076C21.2732 9.284 21.7012 9.388 22.2612 9.388ZM27.3153 10.12C27.1793 10.12 27.0713 10.08 26.9913 10C26.9193 9.912 26.8833 9.792 26.8833 9.64V4.48C26.8833 4.328 26.9193 4.212 26.9913 4.132C27.0633 4.044 27.1713 4 27.3153 4C27.4513 4 27.5553 4.044 27.6273 4.132C27.7073 4.212 27.7473 4.328 27.7473 4.48V5.188C28.0433 4.796 28.3993 4.5 28.8153 4.3C29.2393 4.1 29.7033 4 30.2073 4C30.9673 4 31.5513 4.212 31.9593 4.636C32.3753 5.06 32.5833 5.668 32.5833 6.46V9.64C32.5833 9.792 32.5433 9.912 32.4633 10C32.3833 10.08 32.2753 10.12 32.1393 10.12C31.9953 10.12 31.8873 10.08 31.8153 10C31.7433 9.912 31.7073 9.792 31.7073 9.64V6.46C31.7073 5.324 31.1713 4.756 30.0993 4.756C29.3953 4.756 28.8273 4.964 28.3953 5.38C27.9713 5.796 27.7593 6.348 27.7593 7.036V9.64C27.7593 9.784 27.7193 9.9 27.6393 9.988C27.5673 10.076 27.4593 10.12 27.3153 10.12ZM35.8752 10C35.3872 10 35.0072 9.872 34.7352 9.616C34.4632 9.352 34.3272 8.992 34.3272 8.536V3.04C34.3272 2.592 34.4592 2.24 34.7232 1.984C34.9952 1.728 35.3712 1.6 35.8512 1.6H38.6952C39.5032 1.6 40.1312 1.8 40.5792 2.2C41.0272 2.6 41.2512 3.164 41.2512 3.892C41.2512 4.308 41.1432 4.672 40.9272 4.984C40.7112 5.288 40.4152 5.52 40.0392 5.68V5.704C40.4632 5.856 40.7952 6.096 41.0352 6.424C41.2752 6.744 41.3952 7.124 41.3952 7.564C41.3952 8.316 41.1672 8.912 40.7112 9.352C40.2552 9.784 39.6312 10 38.8392 10H35.8752ZM38.7912 5.344C39.2632 5.344 39.6392 5.212 39.9192 4.948C40.1992 4.684 40.3392 4.332 40.3392 3.892C40.3392 3.388 40.1992 3.004 39.9192 2.74C39.6392 2.476 39.2312 2.344 38.6952 2.344H35.8632C35.6792 2.344 35.5272 2.412 35.4072 2.548C35.2872 2.676 35.2272 2.84 35.2272 3.04V5.344H38.7912ZM38.7912 9.244C39.3432 9.244 39.7632 9.104 40.0512 8.824C40.3392 8.536 40.4832 8.12 40.4832 7.576C40.4832 7.104 40.3312 6.736 40.0272 6.472C39.7232 6.208 39.3072 6.076 38.7792 6.076H35.2272V8.56C35.2272 8.76 35.2872 8.924 35.4072 9.052C35.5272 9.18 35.6792 9.244 35.8632 9.244H38.7912ZM45.3508 10.12C44.5668 10.12 43.9508 9.896 43.5028 9.448C43.0628 9 42.8428 8.376 42.8428 7.576V4.48C42.8428 4.328 42.8828 4.212 42.9628 4.132C43.0428 4.044 43.1508 4 43.2868 4C43.4228 4 43.5268 4.044 43.5988 4.132C43.6788 4.212 43.7188 4.328 43.7188 4.48V7.576C43.7188 8.144 43.8708 8.584 44.1748 8.896C44.4788 9.208 44.9028 9.364 45.4468 9.364C45.8788 9.364 46.2628 9.268 46.5988 9.076C46.9348 8.884 47.1948 8.616 47.3788 8.272C47.5708 7.928 47.6668 7.532 47.6668 7.084V4.48C47.6668 4.328 47.7028 4.212 47.7748 4.132C47.8548 4.044 47.9668 4 48.1108 4C48.2468 4 48.3508 4.044 48.4228 4.132C48.5028 4.212 48.5428 4.328 48.5428 4.48V9.64C48.5428 9.792 48.5028 9.912 48.4228 10C48.3508 10.08 48.2468 10.12 48.1108 10.12C47.9668 10.12 47.8548 10.076 47.7748 9.988C47.7028 9.9 47.6668 9.784 47.6668 9.64V8.932C47.3708 9.316 47.0268 9.612 46.6348 9.82C46.2428 10.02 45.8148 10.12 45.3508 10.12ZM50.6707 10.12C50.5347 10.12 50.4267 10.08 50.3467 10C50.2747 9.912 50.2387 9.792 50.2387 9.64V4.48C50.2387 4.328 50.2747 4.212 50.3467 4.132C50.4187 4.044 50.5267 4 50.6707 4C50.8067 4 50.9107 4.044 50.9827 4.132C51.0627 4.212 51.1027 4.328 51.1027 4.48V5.2C51.6467 4.48 52.3987 4.12 53.3587 4.12H53.6587C53.8107 4.12 53.9307 4.156 54.0187 4.228C54.1067 4.292 54.1507 4.384 54.1507 4.504C54.1507 4.624 54.1067 4.716 54.0187 4.78C53.9307 4.844 53.8107 4.876 53.6587 4.876H53.3227C52.6427 4.876 52.1027 5.072 51.7027 5.464C51.3107 5.848 51.1147 6.372 51.1147 7.036V9.64C51.1147 9.784 51.0747 9.9 50.9947 9.988C50.9227 10.076 50.8147 10.12 50.6707 10.12ZM57.0633 10.12C56.2793 10.12 55.6633 9.948 55.2153 9.604C54.7753 9.26 54.5553 8.784 54.5553 8.176C54.5553 7.576 54.7873 7.1 55.2513 6.748C55.7233 6.396 56.3633 6.22 57.1713 6.22C57.6433 6.22 58.0593 6.284 58.4193 6.412C58.7873 6.54 59.0713 6.712 59.2713 6.928V6.16C59.2713 5.704 59.1193 5.356 58.8153 5.116C58.5193 4.876 58.0833 4.756 57.5073 4.756C56.7633 4.756 56.1193 4.932 55.5753 5.284C55.4393 5.364 55.3273 5.404 55.2393 5.404C55.1593 5.404 55.0793 5.372 54.9993 5.308C54.9113 5.236 54.8673 5.144 54.8673 5.032C54.8673 4.912 54.9193 4.812 55.0233 4.732C55.3113 4.508 55.6753 4.332 56.1153 4.204C56.5633 4.068 57.0193 4 57.4833 4C58.3313 4 58.9873 4.192 59.4513 4.576C59.9233 4.96 60.1593 5.5 60.1593 6.196V9.652C60.1593 9.964 60.0153 10.12 59.7273 10.12C59.5993 10.12 59.4953 10.08 59.4153 10C59.3353 9.912 59.2953 9.8 59.2953 9.664V9.232C58.7993 9.824 58.0553 10.12 57.0633 10.12ZM57.1713 9.388C57.7953 9.388 58.3033 9.272 58.6953 9.04C59.0873 8.8 59.2833 8.492 59.2833 8.116C59.2833 7.74 59.0993 7.452 58.7313 7.252C58.3713 7.044 57.8593 6.94 57.1953 6.94C56.6353 6.94 56.2033 7.048 55.8993 7.264C55.5953 7.472 55.4433 7.776 55.4433 8.176C55.4433 8.568 55.5913 8.868 55.8873 9.076C56.1833 9.284 56.6113 9.388 57.1713 9.388ZM64.6614 10.12C63.6694 10.12 62.8854 9.852 62.3094 9.316C61.7414 8.772 61.4574 8.032 61.4574 7.096C61.4574 6.504 61.5814 5.976 61.8294 5.512C62.0854 5.04 62.4534 4.672 62.9334 4.408C63.4214 4.136 64.0054 4 64.6854 4C65.2614 4 65.7494 4.108 66.1494 4.324C66.5574 4.54 66.9174 4.84 67.2294 5.224L67.2414 1.372C67.2414 1.22 67.2774 1.104 67.3494 1.024C67.4294 0.935999 67.5414 0.891999 67.6854 0.891999C67.8214 0.891999 67.9254 0.935999 67.9974 1.024C68.0774 1.104 68.1174 1.22 68.1174 1.372V9.64C68.1174 9.792 68.0774 9.912 67.9974 10C67.9254 10.08 67.8214 10.12 67.6854 10.12C67.5494 10.12 67.4414 10.08 67.3614 10C67.2814 9.912 67.2414 9.792 67.2414 9.64V8.872C66.9614 9.28 66.6014 9.592 66.1614 9.808C65.7294 10.016 65.2294 10.12 64.6614 10.12ZM64.7334 9.364C65.5094 9.364 66.1214 9.16 66.5694 8.752C67.0174 8.336 67.2414 7.772 67.2414 7.06C67.2414 6.588 67.1254 6.18 66.8934 5.836C66.6694 5.484 66.3654 5.216 65.9814 5.032C65.6054 4.848 65.1934 4.756 64.7454 4.756C63.9934 4.756 63.4054 4.972 62.9814 5.404C62.5574 5.828 62.3454 6.392 62.3454 7.096C62.3454 7.848 62.5534 8.416 62.9694 8.8C63.3854 9.176 63.9734 9.364 64.7334 9.364ZM71.9813 10.12C71.1973 10.12 70.5813 9.948 70.1333 9.604C69.6933 9.26 69.4733 8.784 69.4733 8.176C69.4733 7.576 69.7053 7.1 70.1693 6.748C70.6413 6.396 71.2813 6.22 72.0893 6.22C72.5613 6.22 72.9773 6.284 73.3373 6.412C73.7053 6.54 73.9893 6.712 74.1893 6.928V6.16C74.1893 5.704 74.0373 5.356 73.7333 5.116C73.4373 4.876 73.0013 4.756 72.4253 4.756C71.6813 4.756 71.0373 4.932 70.4933 5.284C70.3573 5.364 70.2453 5.404 70.1573 5.404C70.0773 5.404 69.9973 5.372 69.9173 5.308C69.8293 5.236 69.7853 5.144 69.7853 5.032C69.7853 4.912 69.8373 4.812 69.9413 4.732C70.2293 4.508 70.5933 4.332 71.0333 4.204C71.4813 4.068 71.9373 4 72.4013 4C73.2493 4 73.9053 4.192 74.3693 4.576C74.8413 4.96 75.0773 5.5 75.0773 6.196V9.652C75.0773 9.964 74.9333 10.12 74.6453 10.12C74.5173 10.12 74.4133 10.08 74.3333 10C74.2533 9.912 74.2133 9.8 74.2133 9.664V9.232C73.7173 9.824 72.9733 10.12 71.9813 10.12ZM72.0893 9.388C72.7133 9.388 73.2213 9.272 73.6133 9.04C74.0053 8.8 74.2013 8.492 74.2013 8.116C74.2013 7.74 74.0173 7.452 73.6493 7.252C73.2893 7.044 72.7773 6.94 72.1133 6.94C71.5533 6.94 71.1213 7.048 70.8173 7.264C70.5133 7.472 70.3613 7.776 70.3613 8.176C70.3613 8.568 70.5093 8.868 70.8053 9.076C71.1013 9.284 71.5293 9.388 72.0893 9.388Z" fill="black"/>
</svg>
